<svg width="3627" height="3551" viewBox="0 0 3627 3551" fill="none" xmlns="http://www.w3.org/2000/svg">
<path d="M1694.36 199.633L1214.36 1159.63L169.859 1319.63C79.9799 1403.99 84.1386 1451.28 169.859 1535.63L828.359 2166.13C833.826 2224.37 823.363 2266.79 828.359 2363.63L696.859 3248.13C684.577 3378.88 742.891 3408.72 884.859 3436.63L1694.36 2966.13C1825.86 2900.13 1825.86 2900.13 1919.86 2966.13C2013.86 3032.13 2804.36 3436.63 2804.36 3436.63C2923.5 3389.34 2940.22 3345.25 2917.36 3248.13C2917.36 3248.13 2804.36 2613.36 2804.36 2363.63C2804.36 2113.91 3121.31 1962.03 3059 1973L3472.36 1535.63C3585.16 1430.03 3481.69 1347.63 3415.86 1319.63L2399.86 1159.63L1919.86 199.633C1837.06 26.4327 1735.03 127.466 1694.36 199.633Z" fill="#F2BB20" stroke="#F2BB20" stroke-width="208"/>
</svg>
