<svg width="201" height="66" viewBox="0 0 201 66" fill="none" xmlns="http://www.w3.org/2000/svg">
<rect x="1.5" y="1.5" width="198" height="63" rx="14.5" fill="url(#paint0_linear_1_6)" stroke="black" stroke-width="3"/>
<path d="M9.28223 39V35.3975L10.5938 35.1899V30.0601L9.28223 29.8525V26.25H16.7612C17.6522 26.25 18.4933 26.2915 19.2847 26.3745C20.0815 26.4575 20.7843 26.6291 21.3931 26.8892C22.0018 27.1493 22.4777 27.5394 22.8208 28.0596C23.1694 28.5798 23.3438 29.2798 23.3438 30.1597C23.3438 30.8957 23.2082 31.5072 22.937 31.9941C22.6659 32.4756 22.2896 32.8602 21.8081 33.1479C21.3322 33.4302 20.7788 33.6405 20.1479 33.7788C19.5226 33.9116 18.8475 34.0002 18.1226 34.0444C17.3976 34.0832 16.6589 34.1025 15.9062 34.1025V35.1899L17.2178 35.3975V39H9.28223ZM15.9062 31.8198C16.5648 31.8198 17.0822 31.7257 17.4585 31.5376C17.8403 31.3494 18.0312 30.9233 18.0312 30.2593C18.0312 29.8221 17.9427 29.4956 17.7656 29.2798C17.5941 29.0584 17.3506 28.9118 17.0352 28.8398C16.7197 28.7679 16.3434 28.7319 15.9062 28.7319V31.8198ZM32.4497 39.1494C30.9666 39.1494 29.7077 38.9391 28.6729 38.5186C27.638 38.0924 26.8494 37.4229 26.3071 36.5098C25.7648 35.5911 25.4937 34.3903 25.4937 32.9072V30.0601L24.1821 29.8525V26.25H31.5781V29.8525L30.2666 30.0601V32.7412C30.2666 33.5436 30.416 34.144 30.7148 34.5425C31.0137 34.9409 31.5726 35.1401 32.3916 35.1401C33.2106 35.1401 33.7695 34.9409 34.0684 34.5425C34.3672 34.144 34.5166 33.5436 34.5166 32.7412V30.0601L33.2051 29.8525V26.25H39.8291V29.8525L38.5176 30.0601V32.9072C38.5176 34.9603 38.0112 36.5153 36.9985 37.5723C35.9858 38.6237 34.4696 39.1494 32.4497 39.1494ZM40.5845 39V35.3975L41.896 35.1899V29.7529L40.5845 29.5454V26.25H51.5581C52.3384 26.4382 52.9665 26.7563 53.4424 27.2046C53.9183 27.6473 54.1562 28.3224 54.1562 29.23C54.1562 29.8166 54.0705 30.3561 53.8989 30.8486C53.7274 31.3411 53.4645 31.7368 53.1104 32.0356C52.7562 32.3289 52.2996 32.4756 51.7407 32.4756C52.3384 32.5033 52.8835 32.6112 53.376 32.7993C53.8685 32.9875 54.2614 33.2752 54.5547 33.6626C54.8535 34.05 55.0029 34.5591 55.0029 35.1899C55.0029 36.5845 54.6073 37.5695 53.8159 38.145C53.0246 38.715 51.9095 39 50.4707 39H40.5845ZM47.2085 31.5874H47.9888C48.5256 31.5874 48.9434 31.5155 49.2422 31.3716C49.541 31.2222 49.6904 30.8763 49.6904 30.334C49.6904 29.8249 49.5327 29.5094 49.2173 29.3877C48.9019 29.266 48.4924 29.2051 47.9888 29.2051H47.2085V31.5874ZM47.2085 35.7378H47.9888C48.5256 35.7378 48.9434 35.6659 49.2422 35.522C49.541 35.3726 49.6904 35.0239 49.6904 34.4761C49.6904 33.967 49.5327 33.6543 49.2173 33.5381C48.9019 33.4163 48.4924 33.3555 47.9888 33.3555H47.2085V35.7378ZM55.8994 39V35.3975L57.2109 35.1899V30.0601L55.8994 29.8525V26.25H63.752V29.8525L62.5234 30.0601V35.8125C63.0602 35.8125 63.5223 35.7046 63.9097 35.4888C64.297 35.2674 64.6235 35.0212 64.8892 34.75H66.2754V39H55.8994ZM67.3047 39V35.3975L68.6162 35.1899V30.0601L67.3047 29.8525V26.25H75.2402V29.8525L73.9287 30.0601V35.1899L75.2402 35.3975V39H67.3047ZM81.4658 39.1494C80.4365 39.1494 79.4847 39.083 78.6104 38.9502C77.7415 38.8118 76.9447 38.5545 76.2197 38.1782V34.8994H78.7183C78.9507 35.2204 79.2357 35.4943 79.5732 35.7212C79.9163 35.9481 80.3286 36.0615 80.8101 36.0615C81.1974 36.0615 81.4714 35.9591 81.6318 35.7544C81.7923 35.5441 81.8726 35.237 81.8726 34.833C81.1255 34.7666 80.4061 34.6504 79.7144 34.4844C79.0282 34.3184 78.4139 34.0749 77.8716 33.7539C77.3293 33.4274 76.9004 32.9958 76.585 32.459C76.2695 31.9167 76.1118 31.2388 76.1118 30.4253C76.1118 29.3351 76.3525 28.4774 76.834 27.8521C77.321 27.2267 77.9878 26.7812 78.8345 26.5156C79.6867 26.25 80.6579 26.1172 81.748 26.1172C82.8271 26.1172 83.7817 26.2002 84.6118 26.3662C85.4419 26.5322 86.2083 26.7785 86.9111 27.105V30.3423H84.4126C84.1912 30.0269 83.9173 29.7557 83.5908 29.5288C83.2643 29.2964 82.8687 29.1802 82.4038 29.1802C82.0164 29.1802 81.737 29.2992 81.5654 29.5371C81.3939 29.7695 81.3081 30.0905 81.3081 30.5C82.1548 30.5277 82.9351 30.6162 83.6489 30.7656C84.3683 30.915 84.9909 31.1585 85.5166 31.4961C86.0479 31.8281 86.4574 32.2791 86.7451 32.8491C87.0384 33.4136 87.1851 34.1302 87.1851 34.999C87.1851 35.7904 87.0384 36.4544 86.7451 36.9912C86.4518 37.5225 86.0451 37.9458 85.5249 38.2612C85.0047 38.5767 84.3988 38.8035 83.707 38.9419C83.0153 39.0802 82.2682 39.1494 81.4658 39.1494ZM88.314 39V35.3975L89.6089 35.1899V30.0767L88.314 29.8691V26.25H96.1499V29.8691L94.9214 30.0767V31.6455H99.1714V30.0767L97.9429 29.8691V26.25H105.779V29.8691L104.484 30.0767V35.1899L105.779 35.3975V39H97.9429V35.3975L99.1714 35.1899V33.5215H94.9214V35.1899L96.1499 35.3975V39H88.314ZM112.303 39V34.8164L113.324 34.6089L115.773 26.25H122.629L125.086 34.6089L126.107 34.8164V39H121.384L120.936 36.8584H117.466L117.026 39H112.303ZM118.18 34.0112H120.222L119.201 29.2051L118.18 34.0112ZM137.778 39.1494C136.749 39.1494 135.797 39.083 134.923 38.9502C134.054 38.8118 133.257 38.5545 132.532 38.1782V34.8994H135.031C135.263 35.2204 135.548 35.4943 135.886 35.7212C136.229 35.9481 136.641 36.0615 137.123 36.0615C137.51 36.0615 137.784 35.9591 137.944 35.7544C138.105 35.5441 138.185 35.237 138.185 34.833C137.438 34.7666 136.719 34.6504 136.027 34.4844C135.341 34.3184 134.726 34.0749 134.184 33.7539C133.642 33.4274 133.213 32.9958 132.897 32.459C132.582 31.9167 132.424 31.2388 132.424 30.4253C132.424 29.3351 132.665 28.4774 133.146 27.8521C133.633 27.2267 134.3 26.7812 135.147 26.5156C135.999 26.25 136.97 26.1172 138.061 26.1172C139.14 26.1172 140.094 26.2002 140.924 26.3662C141.754 26.5322 142.521 26.7785 143.224 27.105V30.3423H140.725C140.504 30.0269 140.23 29.7557 139.903 29.5288C139.577 29.2964 139.181 29.1802 138.716 29.1802C138.329 29.1802 138.049 29.2992 137.878 29.5371C137.706 29.7695 137.621 30.0905 137.621 30.5C138.467 30.5277 139.248 30.6162 139.961 30.7656C140.681 30.915 141.303 31.1585 141.829 31.4961C142.36 31.8281 142.77 32.2791 143.058 32.8491C143.351 33.4136 143.498 34.1302 143.498 34.999C143.498 35.7904 143.351 36.4544 143.058 36.9912C142.764 37.5225 142.358 37.9458 141.837 38.2612C141.317 38.5767 140.711 38.8035 140.02 38.9419C139.328 39.0802 138.581 39.1494 137.778 39.1494ZM151.931 39.1494C150.398 39.1494 149.076 38.9142 147.963 38.4438C146.851 37.9679 145.996 37.2375 145.398 36.2524C144.801 35.2674 144.502 34.0085 144.502 32.4756C144.502 30.998 144.812 29.7861 145.432 28.8398C146.057 27.8936 146.929 27.1935 148.046 26.7397C149.164 26.286 150.459 26.0591 151.931 26.0591C153.409 26.0591 154.706 26.286 155.824 26.7397C156.942 27.1935 157.814 27.8936 158.439 28.8398C159.064 29.7861 159.377 30.998 159.377 32.4756C159.377 33.9974 159.073 35.2536 158.464 36.2441C157.855 37.2292 156.992 37.9596 155.874 38.4355C154.762 38.9115 153.447 39.1494 151.931 39.1494ZM151.931 35.1401C152.75 35.1401 153.309 34.8966 153.608 34.4097C153.912 33.9227 154.064 33.278 154.064 32.4756C154.064 31.6676 153.912 31.0285 153.608 30.5581C153.304 30.0877 152.745 29.8525 151.931 29.8525C151.118 29.8525 150.562 30.0877 150.263 30.5581C149.964 31.0285 149.814 31.6676 149.814 32.4756C149.814 33.278 149.961 33.9227 150.254 34.4097C150.553 34.8966 151.112 35.1401 151.931 35.1401ZM160.614 39V35.3975L161.909 35.1899V30.0601L160.614 29.8525V26.25H167.221L171.471 32.7827V30.0767L170.409 29.8525V26.25H175.954V29.8525L174.659 30.0601V39H169.338L165.096 32.7827V35.1899L166.159 35.3892V39H160.614ZM184.155 39.1494C181.958 39.1494 180.24 38.5877 179 37.4644C177.766 36.3354 177.149 34.6725 177.149 32.4756C177.149 30.3395 177.747 28.7375 178.942 27.6694C180.137 26.5959 181.795 26.0591 183.914 26.0591C185.054 26.0591 186.067 26.1504 186.952 26.333C187.843 26.5101 188.662 26.7757 189.409 27.1299V30.9233H186.911C186.689 30.6079 186.415 30.3368 186.089 30.1099C185.762 29.8774 185.367 29.7612 184.902 29.7612C184.404 29.7612 183.972 29.883 183.607 30.1265C183.247 30.3644 182.968 30.6882 182.769 31.0977C182.569 31.5072 182.47 31.9665 182.47 32.4756C182.47 33.3721 182.672 34.0583 183.076 34.5342C183.485 35.0046 184.119 35.2397 184.977 35.2397C185.198 35.2397 185.408 35.2287 185.607 35.2065C185.807 35.1789 186 35.1457 186.188 35.1069V34.1025H184.595V31.8281H189.758V37.8877C188.966 38.2197 188.109 38.513 187.185 38.7676C186.266 39.0221 185.256 39.1494 184.155 39.1494Z" fill="black"/>
<defs>
<linearGradient id="paint0_linear_1_6" x1="3" y1="3.39747" x2="198" y2="62.6025" gradientUnits="userSpaceOnUse">
<stop stop-color="#FC7EFF"/>
<stop offset="1" stop-color="#9D509E"/>
</linearGradient>
</defs>
</svg>
