<svg width="1310" height="1317" viewBox="0 0 1310 1317" fill="none" xmlns="http://www.w3.org/2000/svg">
<path d="M1306.5 662C1306.5 1021.81 1014.81 1313.5 655 1313.5C295.186 1313.5 3.5 1021.81 3.5 662C3.5 302.186 295.186 10.5 655 10.5C1014.81 10.5 1306.5 302.186 1306.5 662Z" fill="#555555" stroke="black" stroke-width="7"/>
<path d="M825.5 662C825.5 759.02 749.072 837.5 655 837.5C560.929 837.5 484.5 759.02 484.5 662C484.5 564.98 560.929 486.5 655 486.5C749.072 486.5 825.5 564.98 825.5 662Z" fill="#A0A0A0" stroke="black" stroke-width="7"/>
<path d="M236.248 351.368L217.851 332.903L223.359 325.157L197.247 298.949L189.619 304.568L171.137 286.018L210.879 245.584L229.361 264.133L224.19 271.536L232.202 279.577L253.757 257.647L245.746 249.606L238.455 254.882L219.973 236.332L259.715 195.898L278.197 214.447L272.689 222.193L298.802 248.401L306.429 242.783L324.826 261.248L285.084 301.682L266.687 283.217L271.858 275.814L263.337 267.262L241.782 289.193L250.303 297.744L257.593 292.469L275.99 310.934L236.248 351.368Z" fill="black"/>
<path d="M335.793 254.042L320.076 228.172L325.574 222.995L309.228 161.967L351.384 135.815L397.892 178.132L404.949 175.52L420.665 201.39L391.626 219.405L380.825 207.872L359.492 221.106L364.832 236.027L335.793 254.042ZM353.185 200.778L365.74 192.989L341.407 167.164L353.185 200.778Z" fill="black"/>
<path d="M430.138 196.359L421.567 171.744L430.014 167.147L417.809 132.094L408.375 133.855L399.804 109.239L450.79 91.1113C457.014 88.8981 462.942 87.1094 468.572 85.7451C474.188 84.3429 479.35 83.825 484.056 84.1914C488.787 84.5065 492.942 86.0889 496.52 88.9385C500.085 91.7503 502.947 96.2568 505.107 102.458C506.7 107.033 507.267 111.038 506.81 114.473C506.377 117.857 505.168 120.9 503.184 123.602C501.237 126.292 498.803 128.92 495.882 131.489C500.42 135.145 504.901 138.396 509.326 141.242C513.738 144.05 517.624 146.323 520.984 148.06L525.941 162.296L489.951 175.093C480.574 166.911 472.734 158.034 466.434 148.461L464.453 149.165L475.295 180.304L430.138 196.359ZM458.627 132.433C461.532 131.4 463.987 130.294 465.993 129.113C468.023 127.881 469.398 126.351 470.118 124.523C470.825 122.657 470.671 120.268 469.658 117.357C468.644 114.445 467.29 112.504 465.595 111.534C463.888 110.527 461.861 110.185 459.515 110.509C457.194 110.782 454.58 111.435 451.676 112.468L458.627 132.433Z" fill="black"/>
<path d="M533.94 159.692L530.768 133.82L540.12 131.136L535.332 92.0903L525.615 91.7939L522.713 68.1279L594.046 59.1962C601.75 59.8457 608.622 61.6081 614.662 64.4835C620.697 67.3191 625.635 71.5632 629.474 77.2159C633.309 82.8288 635.782 90.1658 636.893 99.2269C637.989 108.169 637.418 115.846 635.179 122.26C632.935 128.634 629.311 133.95 624.307 138.209C619.303 142.467 613.161 145.839 605.882 148.324C598.643 150.804 590.554 152.604 581.615 153.723L533.94 159.692ZM578.26 126.361L584.1 125.63C589.185 124.993 593.06 123.701 595.726 121.753C598.387 119.765 599.623 116.523 599.435 112.028C599.368 110.825 599.274 109.566 599.153 108.25C599.027 106.894 598.874 105.48 598.694 104.01C598.119 99.3203 597.239 95.5971 596.053 92.8402C594.868 90.0833 592.984 88.2008 590.399 87.1928C587.815 86.1848 584.119 85.9817 579.312 86.5836L573.472 87.3149L578.26 126.361Z" fill="black"/>
<path d="M689.912 151.168C682.484 150.632 675.649 149.656 669.408 148.242C663.208 146.791 657.589 144.518 652.55 141.424L654.224 117.76L672.255 119.063C673.768 121.5 675.685 123.626 678.005 125.439C680.365 127.256 683.282 128.29 686.757 128.541C689.552 128.742 691.581 128.146 692.844 126.752C694.109 125.318 694.845 123.144 695.051 120.228C689.694 119.359 684.562 118.145 679.655 116.587C674.788 115.031 670.479 112.953 666.729 110.354C662.983 107.715 660.108 104.376 658.106 100.337C656.106 96.2588 655.314 91.284 655.73 85.413C656.286 77.5449 658.462 71.4798 662.255 67.2177C666.089 62.9585 671.128 60.091 677.374 58.6154C683.66 57.1426 690.736 56.6904 698.603 57.2588C706.391 57.8214 713.237 58.9181 719.143 60.5491C725.048 62.18 730.453 64.3569 735.358 67.0797L733.705 90.4442L715.675 89.1415C714.238 86.7496 712.4 84.6498 710.16 82.842C707.922 80.9944 705.126 79.9494 701.772 79.707C698.976 79.505 696.899 80.218 695.539 81.846C694.183 83.434 693.4 85.7058 693.191 88.6613C699.287 89.3024 704.872 90.3482 709.947 91.7987C715.063 93.2522 719.431 95.3341 723.053 98.0445C726.717 100.718 729.442 104.186 731.227 108.45C733.056 112.677 733.748 117.925 733.304 124.196C732.9 129.907 731.503 134.623 729.112 138.345C726.724 142.026 723.573 144.869 719.658 146.874C715.743 148.88 711.254 150.201 706.192 150.839C701.129 151.477 695.703 151.587 689.912 151.168Z" fill="black"/>
<path d="M755.315 158.191L761.661 132.91L771.218 133.81L781.351 93.4413C778.287 92.6559 775.561 92.8252 773.174 93.9492C770.796 95.0344 768.709 96.2768 766.913 97.6764L757.139 95.1712L764.625 65.3464L846.54 86.3426L839.054 116.167L829.28 113.662C828.4 111.577 827.151 109.479 825.534 107.37C823.965 105.232 821.649 103.77 818.585 102.985L808.452 143.353L817.279 147.166L810.933 172.447L755.315 158.191Z" fill="black"/>
<path d="M861.294 191.546L872.731 168.258L880.45 169.979L873.138 125.06L864.003 118.866L875.493 95.4698L922.414 119.001L910.924 142.397L904.92 140.999L907.505 163.391L926.716 151.93L921.983 147.944L933.473 124.547L980.878 148.321L969.387 171.717L958.498 167.869L918.674 189.149L924.699 194.32L913.261 217.608L861.294 191.546Z" fill="black"/>
<path d="M946.565 238.02L962.498 217.391L970.866 222.079L993.554 192.705L987.021 185.64L1002.95 165.011L1047.56 200.196L1031.63 220.824L1023.73 216.508L998.293 249.447C1001.34 251.853 1004.44 253.305 1007.6 253.805C1010.78 254.273 1013.72 254.326 1016.43 253.963L1024.31 260.175L1005.51 284.511L946.565 238.02Z" fill="black"/>
<path d="M1013.84 292.072L1033.03 274.426L1040.48 280.46L1067.71 255.415L1062.47 247.348L1081.74 229.621L1136.69 290.623L1114.05 311.44L1107.58 304.255C1107.11 300.558 1106.06 296.705 1104.45 292.697C1102.89 288.692 1100.35 284.741 1096.84 280.844L1084.77 291.944L1099.71 302.688L1084.06 317.081L1074.87 301.051L1062.89 312.07C1066.35 315.907 1069.95 318.826 1073.69 320.825C1077.46 322.797 1081.13 324.123 1084.71 324.804L1091.42 332.257L1068.79 353.074L1013.84 292.072Z" fill="black"/>
</svg>
