<svg width="1310" height="1310" viewBox="0 0 1310 1310" fill="none" xmlns="http://www.w3.org/2000/svg">
<path d="M1306.5 655C1306.5 1014.81 1014.81 1306.5 655 1306.5C295.186 1306.5 3.5 1014.81 3.5 655C3.5 295.186 295.186 3.5 655 3.5C1014.81 3.5 1306.5 295.186 1306.5 655Z" fill="url(#paint0_linear_2_2)" stroke="black" stroke-width="7"/>
<path d="M486.109 212.23C477.997 212.23 470.706 211.592 464.234 210.316C457.763 209.04 452.021 207.012 447.008 204.232V172.514H467.584C468.906 174.975 470.637 177.185 472.779 179.145C474.921 181.104 477.564 182.084 480.709 182.084C483.033 182.084 484.924 181.355 486.383 179.896C487.887 178.438 488.98 176.57 489.664 174.291C490.348 172.012 490.689 169.665 490.689 167.25V137.377L479.889 135.668V106H545.24V135.668L534.439 137.377V167.25C534.439 182.654 530.224 194.001 521.793 201.293C513.408 208.585 501.513 212.23 486.109 212.23ZM546.744 211V176.547L555.152 174.838L575.318 106H631.783L652.018 174.838L660.426 176.547V211H621.529L617.838 193.363H589.264L585.641 211H546.744ZM595.143 169.916H611.959L603.551 130.336L595.143 169.916ZM670.543 211V184.75L709.098 132.25C703.993 132.25 699.55 133.139 695.768 134.916C692.031 136.648 688.772 138.676 685.992 141H674.508V106H755.855V134.301L721.402 183.52C722.587 183.656 723.704 183.725 724.752 183.725C729.081 183.725 732.841 182.95 736.031 181.4C739.267 179.805 742.047 178.005 744.371 176H755.855V211H670.543ZM765.836 211V184.75L804.391 132.25C799.286 132.25 794.843 133.139 791.061 134.916C787.324 136.648 784.065 138.676 781.285 141H769.801V106H851.148V134.301L816.695 183.52C817.88 183.656 818.997 183.725 820.045 183.725C824.374 183.725 828.134 182.95 831.324 181.4C834.56 179.805 837.34 178.005 839.664 176H851.148V211H765.836Z" fill="black"/>
<path d="M825.5 655C825.5 752.02 749.072 830.5 655 830.5C560.929 830.5 484.5 752.02 484.5 655C484.5 557.98 560.929 479.5 655 479.5C749.072 479.5 825.5 557.98 825.5 655Z" fill="#A0A0A0" stroke="black" stroke-width="7"/>
<defs>
<linearGradient id="paint0_linear_2_2" x1="309.395" y1="-1.87825e-05" x2="1000.6" y2="1310" gradientUnits="userSpaceOnUse">
<stop stop-color="#4B3D34"/>
<stop offset="1" stop-color="#967A6B"/>
</linearGradient>
</defs>
</svg>
