<svg width="1310" height="1310" viewBox="0 0 1310 1310" fill="none" xmlns="http://www.w3.org/2000/svg">
<path d="M1306.5 655C1306.5 1014.81 1014.81 1306.5 655 1306.5C295.186 1306.5 3.5 1014.81 3.5 655C3.5 295.186 295.186 3.5 655 3.5C1014.81 3.5 1306.5 295.186 1306.5 655Z" fill="url(#paint0_linear_2_3)" stroke="black" stroke-width="7"/>
<path d="M825.5 655C825.5 752.02 749.072 830.5 655 830.5C560.929 830.5 484.5 752.02 484.5 655C484.5 557.98 560.929 479.5 655 479.5C749.072 479.5 825.5 557.98 825.5 655Z" fill="#A0A0A0" stroke="black" stroke-width="7"/>
<path d="M469.324 206V176.332L480.125 174.623V132.377L469.324 130.668V101H530.916C538.253 101 545.18 101.342 551.697 102.025C558.26 102.709 564.048 104.122 569.061 106.264C574.074 108.406 577.993 111.618 580.818 115.902C583.689 120.186 585.125 125.951 585.125 133.197C585.125 139.258 584.008 144.294 581.775 148.305C579.542 152.27 576.443 155.437 572.479 157.807C568.559 160.131 564.002 161.863 558.807 163.002C553.657 164.096 548.097 164.825 542.127 165.189C536.157 165.508 530.073 165.668 523.875 165.668V174.623L534.676 176.332V206H469.324ZM523.875 146.869C529.298 146.869 533.559 146.094 536.658 144.545C539.803 142.995 541.375 139.486 541.375 134.018C541.375 130.417 540.646 127.729 539.188 125.951C537.775 124.128 535.77 122.921 533.172 122.328C530.574 121.736 527.475 121.439 523.875 121.439V146.869ZM654.783 207.23C642.16 207.23 631.268 205.294 622.107 201.42C612.947 197.501 605.906 191.485 600.984 183.373C596.062 175.261 593.602 164.893 593.602 152.27C593.602 140.102 596.154 130.121 601.258 122.328C606.408 114.535 613.585 108.77 622.791 105.033C631.997 101.296 642.661 99.4277 654.783 99.4277C666.951 99.4277 677.638 101.296 686.844 105.033C696.049 108.77 703.227 114.535 708.377 122.328C713.527 130.121 716.102 140.102 716.102 152.27C716.102 164.802 713.595 175.147 708.582 183.305C703.569 191.417 696.46 197.432 687.254 201.352C678.094 205.271 667.27 207.23 654.783 207.23ZM654.783 174.213C661.528 174.213 666.131 172.208 668.592 168.197C671.098 164.187 672.352 158.878 672.352 152.27C672.352 145.616 671.098 140.352 668.592 136.479C666.085 132.605 661.482 130.668 654.783 130.668C648.084 130.668 643.504 132.605 641.043 136.479C638.582 140.352 637.352 145.616 637.352 152.27C637.352 158.878 638.559 164.187 640.975 168.197C643.436 172.208 648.038 174.213 654.783 174.213ZM723.074 206V176.332L733.875 174.623V132.377L723.074 130.668V101H784.666C792.003 101 798.93 101.342 805.447 102.025C812.01 102.709 817.798 104.122 822.811 106.264C827.824 108.406 831.743 111.618 834.568 115.902C837.439 120.186 838.875 125.951 838.875 133.197C838.875 139.258 837.758 144.294 835.525 148.305C833.292 152.27 830.193 155.437 826.229 157.807C822.309 160.131 817.752 161.863 812.557 163.002C807.407 164.096 801.847 164.825 795.877 165.189C789.907 165.508 783.823 165.668 777.625 165.668V174.623L788.426 176.332V206H723.074ZM777.625 146.869C783.048 146.869 787.309 146.094 790.408 144.545C793.553 142.995 795.125 139.486 795.125 134.018C795.125 130.417 794.396 127.729 792.938 125.951C791.525 124.128 789.52 122.921 786.922 122.328C784.324 121.736 781.225 121.439 777.625 121.439V146.869Z" fill="black"/>
<defs>
<linearGradient id="paint0_linear_2_3" x1="1.367e-05" y1="36.0491" x2="1310" y2="1273.95" gradientUnits="userSpaceOnUse">
<stop stop-color="#F582FF"/>
<stop offset="1" stop-color="#934E99"/>
</linearGradient>
</defs>
</svg>
