<svg width="1310" height="1310" viewBox="0 0 1310 1310" fill="none" xmlns="http://www.w3.org/2000/svg">
<path d="M1306.5 655C1306.5 1014.81 1014.81 1306.5 655 1306.5C295.186 1306.5 3.5 1014.81 3.5 655C3.5 295.186 295.186 3.5 655 3.5C1014.81 3.5 1306.5 295.186 1306.5 655Z" fill="url(#paint0_linear_2_2)" stroke="black" stroke-width="7"/>
<path d="M462.734 196V166.332L473.535 164.623V122.377L462.734 120.668V91H524.326C531.846 91 538.887 91.3418 545.449 92.0254C552.012 92.6634 557.754 94.0762 562.676 96.2637C567.643 98.4056 571.517 101.687 574.297 106.107C577.077 110.482 578.467 116.407 578.467 123.881C578.467 129.395 577.578 133.907 575.801 137.416C574.069 140.88 571.631 143.682 568.486 145.824C565.387 147.966 561.787 149.857 557.686 151.498C561.195 157.149 564.795 162.344 568.486 167.084C572.178 171.778 575.505 175.697 578.467 178.842V196H534.99C527.972 183.65 522.868 171.14 519.678 158.471H517.285V196H462.734ZM517.285 138.305C520.794 138.305 523.848 138.054 526.445 137.553C529.089 137.006 531.139 135.889 532.598 134.203C534.056 132.471 534.785 129.851 534.785 126.342C534.785 122.833 534.056 120.235 532.598 118.549C531.139 116.817 529.089 115.678 526.445 115.131C523.848 114.538 520.794 114.242 517.285 114.242V138.305ZM588.857 196V161.547L597.266 159.838L617.432 91H673.896L694.131 159.838L702.539 161.547V196H663.643L659.951 178.363H631.377L627.754 196H588.857ZM637.256 154.916H654.072L645.664 115.336L637.256 154.916ZM710.195 196V166.332L720.996 164.623V122.377L710.195 120.668V91H771.787C779.124 91 786.051 91.3418 792.568 92.0254C799.131 92.709 804.919 94.1217 809.932 96.2637C814.945 98.4056 818.864 101.618 821.689 105.902C824.561 110.186 825.996 115.951 825.996 123.197C825.996 129.258 824.88 134.294 822.646 138.305C820.413 142.27 817.314 145.437 813.35 147.807C809.43 150.131 804.873 151.863 799.678 153.002C794.528 154.096 788.968 154.825 782.998 155.189C777.028 155.508 770.944 155.668 764.746 155.668V164.623L775.547 166.332V196H710.195ZM764.746 136.869C770.169 136.869 774.43 136.094 777.529 134.545C780.674 132.995 782.246 129.486 782.246 124.018C782.246 120.417 781.517 117.729 780.059 115.951C778.646 114.128 776.641 112.921 774.043 112.328C771.445 111.736 768.346 111.439 764.746 111.439V136.869Z" fill="black"/>
<path d="M825.5 655C825.5 752.02 749.072 830.5 655 830.5C560.929 830.5 484.5 752.02 484.5 655C484.5 557.98 560.929 479.5 655 479.5C749.072 479.5 825.5 557.98 825.5 655Z" fill="#A0A0A0" stroke="black" stroke-width="7"/>
<defs>
<linearGradient id="paint0_linear_2_2" x1="234.216" y1="-7.4222e-06" x2="1075.78" y2="1310" gradientUnits="userSpaceOnUse">
<stop stop-color="#5A4C5B"/>
<stop offset="1" stop-color="#BFA0C1"/>
</linearGradient>
</defs>
</svg>
